<?xml version="1.0" encoding="utf-8"?>
<!-- Generator: Adobe Illustrator 30.0.0, SVG Export Plug-In . SVG Version: 9.03 Build 0)  -->
<svg version="1.0" id="Layer_1" xmlns="http://www.w3.org/2000/svg" xmlns:xlink="http://www.w3.org/1999/xlink" x="0px" y="0px"
	 viewBox="0 0 987.34 199.43" style="enable-background:new 0 0 987.34 199.43;" xml:space="preserve">
<style type="text/css">
	.st0{clip-path:url(#SVGID_00000102544305815803456090000013918815107920716702_);}
	.st1{fill:#00BF63;}
</style>
<g transform="matrix(1, 0, 0, 1, 0, 291)">
	<g>
		<defs>
			<rect id="SVGID_1_" x="-1.56" y="-302.67" width="1000" height="222.67"/>
		</defs>
		<clipPath id="SVGID_00000173861927273090664160000006806489317885331128_">
			<use xlink:href="#SVGID_1_"  style="overflow:visible;"/>
		</clipPath>
		<g style="clip-path:url(#SVGID_00000173861927273090664160000006806489317885331128_);">
			<g>
				<g transform="translate(0.0144619, 125.179888)">
					<g>
						<path class="st1" d="M59.78-292.84l-23.25,31.9H-0.01l41.65-56.92L2.21-371.66h36.52l21.04,28.77l21.04-28.77h36.54
							l-39.21,53.79l41.42,56.92H83.03L59.78-292.84z"/>
					</g>
				</g>
			</g>
			<g>
				<g transform="translate(90.35332, 125.179888)">
					<g>
						<path class="st1" d="M69.52-329.59c3.4,1.03,7.09,1.84,11.08,2.44c3.98,0.58,7.75,0.88,11.29,0.88
							c4.88,0,8.71-0.66,11.52-1.98c2.8-1.33,4.21-3.1,4.21-5.31c0-2.51-1.37-4.32-4.1-5.42c-2.74-1.11-6.24-1.67-10.52-1.67
							c-6.06,0-10.97,1-14.73,3C74.5-335.67,71.58-332.98,69.52-329.59z M132.18-295.49v31c-5.61,1.47-11.93,2.66-18.94,3.54
							c-7,0.89-13.24,1.33-18.71,1.33c-13.57,0-24.93-2.55-34.08-7.65c-9.16-5.09-15.99-11.92-20.5-20.48
							c-4.5-8.57-6.75-17.94-6.75-28.12c0-10.62,2.32-20.21,6.98-28.77c4.65-8.57,11.33-15.4,20.04-20.5
							c8.71-5.09,19.26-7.65,31.67-7.65c9.59,0,18.08,1.56,25.46,4.67c7.39,3.1,13.19,7.38,17.4,12.83
							c4.21,5.46,6.31,11.89,6.31,19.27c0,6.93-2.1,13.06-6.31,18.38c-4.21,5.32-10.01,9.46-17.4,12.42
							c-7.38,2.95-15.94,4.42-25.69,4.42c-8.11,0-16.08-1.77-23.92-5.31c1.48,4.43,4.48,7.94,8.98,10.52s11.25,3.88,20.25,3.88
							c3.11,0,6.88-0.15,11.29-0.44c4.43-0.3,8.82-0.75,13.17-1.33C125.79-294.08,129.37-294.75,132.18-295.49z"/>
					</g>
				</g>
			</g>
			<g>
				<g transform="translate(178.699474, 125.179888)">
					<g>
						<path class="st1" d="M182.01-316.3v55.35H148.8v-55.35c0-7.53-1.93-13.69-5.77-18.48c-3.83-4.8-9.66-7.21-17.48-7.21
							c-7.82,0-13.66,2.41-17.5,7.21c-3.83,4.79-5.75,10.95-5.75,18.48v55.35H69.07v-55.35c0-10.48,2.21-20.01,6.65-28.56
							c4.43-8.57,10.89-15.36,19.38-20.38c8.5-5.03,18.65-7.54,30.46-7.54c11.96,0,22.14,2.52,30.54,7.54
							c8.42,5.02,14.84,11.81,19.27,20.38C179.79-336.31,182.01-326.79,182.01-316.3z"/>
					</g>
				</g>
			</g>
			<g>
				<g transform="translate(278.670137, 125.179888)">
					<g>
						<path class="st1" d="M154.66-290.61c9,0,15.49-2.51,19.48-7.52c3.98-5.03,5.98-11.08,5.98-18.17c0-7.08-1.99-13.13-5.98-18.15
							c-3.99-5.03-10.48-7.54-19.48-7.54s-15.49,2.52-19.48,7.54c-3.99,5.02-5.98,11.06-5.98,18.15c0,7.08,1.99,13.14,5.98,18.17
							C139.17-293.12,145.66-290.61,154.66-290.61z M154.66-259.84c-12.25,0-22.77-2.54-31.56-7.62
							c-8.78-5.09-15.49-11.92-20.15-20.48c-4.66-8.57-6.98-18.02-6.98-28.35c0-10.48,2.32-19.97,6.98-28.46
							c4.65-8.48,11.36-15.28,20.15-20.38c8.79-5.09,19.31-7.65,31.56-7.65c12.4,0,22.96,2.55,31.67,7.65
							c8.71,5.1,15.39,11.89,20.04,20.38c4.65,8.49,6.98,17.97,6.98,28.46c0,10.33-2.33,19.79-6.98,28.35
							c-4.66,8.56-11.33,15.39-20.04,20.48C177.62-262.38,167.06-259.84,154.66-259.84z"/>
					</g>
				</g>
			</g>
			<g>
				<g transform="translate(373.669728, 125.179888)">
					<g>
						<path class="st1" d="M135.62-264.49v-12.85c3.09,1.04,6.93,1.93,11.5,2.67c4.58,0.74,9.34,1.29,14.29,1.67
							c4.94,0.36,9.48,0.54,13.62,0.54c11.51,0,19.78-1.55,24.79-4.65c5.03-3.09,7.54-7.82,7.54-14.17c0-3.25-0.89-5.98-2.67-8.19
							c-1.77-2.22-5.2-4.21-10.29-5.98c-5.1-1.78-12.74-3.55-22.92-5.33c-3.25-0.58-6.91-1.35-10.98-2.31
							c-4.06-0.96-7.9-2.43-11.52-4.42c-3.61-2-6.6-4.84-8.96-8.54c-2.36-3.69-3.54-8.56-3.54-14.6c0-7.23,1.84-13.21,5.54-17.94
							c3.69-4.73,8.75-8.28,15.17-10.65c6.43-2.36,13.7-3.54,21.81-3.54c5.03,0,10.97,0.41,17.83,1.23
							c6.86,0.81,12.88,2.02,18.04,3.65v12.85c-2.52-0.89-5.91-1.7-10.19-2.44c-4.28-0.73-8.78-1.32-13.5-1.77
							c-4.72-0.44-9.08-0.67-13.06-0.67c-10.49,0-17.83,1.74-22.04,5.21c-4.21,3.46-6.31,8.29-6.31,14.5c0,3.25,0.77,5.88,2.31,7.88
							c1.55,1.99,4.69,3.76,9.42,5.31c4.73,1.54,11.75,3.35,21.04,5.42c6.94,1.47,13.29,3.06,19.04,4.75
							c5.76,1.7,10.38,4.32,13.83,7.88c3.47,3.54,5.21,8.93,5.21,16.15c0,7.68-2.07,13.96-6.21,18.83
							c-4.12,4.88-9.7,8.49-16.71,10.85c-7.02,2.36-14.88,3.54-23.58,3.54c-5.46,0-11.84-0.45-19.15-1.33
							C147.69-261.83,141.23-263.02,135.62-264.49z"/>
					</g>
				</g>
			</g>
			<g>
				<g transform="translate(455.373308, 125.179888)">
					<g>
						<path class="st1" d="M181.23-316.3v55.35h-13.29v-155h13.29v67.98c3.69-7.53,8.82-13.54,15.4-18.04
							c6.57-4.51,14.5-6.77,23.79-6.77c10.04,0,18.57,2.52,25.58,7.54c7.01,5.02,12.36,11.81,16.04,20.38
							c3.69,8.56,5.54,18.08,5.54,28.56v55.35h-13.27v-55.35c0-13-2.77-23.52-8.31-31.56c-5.54-8.04-14.58-12.06-27.12-12.06
							s-21.95,4.06-28.23,12.19C184.37-339.62,181.23-329.15,181.23-316.3z"/>
					</g>
				</g>
			</g>
			<g>
				<g transform="translate(555.343958, 125.179888)">
					<g>
						<path class="st1" d="M246.89-272.68c9.15,0,16.57-1.96,22.25-5.88c5.68-3.92,9.84-9.19,12.5-15.83c2.67-6.64,4-13.94,4-21.92
							c0-8.12-1.33-15.47-4-22.04c-2.66-6.57-6.82-11.8-12.5-15.71c-5.68-3.92-13.1-5.88-22.25-5.88c-9,0-16.39,1.96-22.15,5.88
							c-5.77,3.91-9.97,9.14-12.62,15.71c-2.66,6.57-3.98,13.92-3.98,22.04c0,7.97,1.32,15.28,3.98,21.92
							c2.65,6.64,6.86,11.92,12.62,15.83C230.5-274.63,237.89-272.68,246.89-272.68z M246.89-259.84c-10.93,0-20.31-2.54-28.12-7.62
							c-7.82-5.09-13.77-11.92-17.83-20.48c-4.06-8.57-6.08-18.02-6.08-28.35c0-10.48,2.03-19.97,6.08-28.46
							c4.07-8.48,10.01-15.28,17.83-20.38c7.82-5.09,17.19-7.65,28.12-7.65c11.07,0,20.48,2.55,28.23,7.65
							c7.75,5.1,13.65,11.89,17.71,20.38c4.07,8.49,6.1,17.97,6.1,28.46c0,10.33-2.04,19.79-6.1,28.35
							c-4.06,8.56-9.96,15.39-17.71,20.48C267.37-262.38,257.95-259.84,246.89-259.84z"/>
					</g>
				</g>
			</g>
			<g>
				<g transform="translate(650.332685, 125.179888)">
					<g>
						<path class="st1" d="M246.22-316.3c0,14.91,3.46,25.91,10.4,33c6.94,7.08,16.32,10.62,28.15,10.62
							c9.29,0,16.81-1.92,22.56-5.75c5.76-3.84,9.94-9.09,12.52-15.73c2.58-6.65,3.88-14.03,3.88-22.15
							c0-8.26-1.29-15.68-3.88-22.25c-2.58-6.57-6.76-11.77-12.52-15.6c-5.75-3.84-13.27-5.77-22.56-5.77
							c-11.82,0-21.2,3.54-28.15,10.62C249.68-342.22,246.22-331.22,246.22-316.3z M246.22-281.32v64.67h-13.29v-99.65
							c0-10.48,1.99-19.97,5.98-28.46c3.98-8.48,9.82-15.28,17.5-20.38c7.68-5.09,17.13-7.65,28.35-7.65
							c11.51,0,21.15,2.62,28.9,7.88c7.75,5.24,13.57,12.14,17.48,20.71c3.92,8.56,5.88,17.85,5.88,27.9
							c0,10.47-2.07,19.99-6.21,28.56c-4.12,8.56-10.03,15.35-17.71,20.38c-7.68,5.02-16.83,7.52-27.46,7.52
							c-9,0-16.83-1.95-23.48-5.85C255.51-269.61,250.2-274.82,246.22-281.32z"/>
					</g>
				</g>
			</g>
		</g>
	</g>
</g>
</svg>
